<?xml version="1.0" encoding="UTF-8"?>
<!DOCTYPE svg PUBLIC "-//W3C//DTD SVG 1.1//EN" "http://www.w3.org/Graphics/SVG/1.1/DTD/svg11.dtd">
<svg xmlns="http://www.w3.org/2000/svg" xmlns:xlink="http://www.w3.org/1999/xlink" version="1.1" width="521px" height="164px" viewBox="-0.5 -0.5 521 164"><defs><clipPath id="mx-clip-4-31-232-44-0"><rect x="4" y="31" width="232" height="44"/></clipPath><clipPath id="mx-clip-4-83-232-50-0"><rect x="4" y="83" width="232" height="50"/></clipPath><clipPath id="mx-clip-284-71-232-34-0"><rect x="284" y="71" width="232" height="34"/></clipPath><clipPath id="mx-clip-284-113-232-52-0"><rect x="284" y="113" width="232" height="52"/></clipPath></defs><g><path d="M 0 26 L 0 0 L 240 0 L 240 26" fill="#ffe6cc" stroke="#d79b00" stroke-miterlimit="10" pointer-events="all"/><path d="M 0 26 L 0 128 L 240 128 L 240 26" fill="none" stroke="#d79b00" stroke-miterlimit="10" pointer-events="none"/><path d="M 0 26 L 240 26" fill="none" stroke="#d79b00" stroke-miterlimit="10" pointer-events="none"/><g fill="#000000" font-family="Helvetica" font-weight="bold" text-anchor="middle" font-size="12px"><text x="119.5" y="18.33">class Subscription</text></g><g fill="#000000" font-family="Helvetica" clip-path="url(#mx-clip-4-31-232-44-0)" font-size="12px"><text x="5.5" y="43.5">+ public closed: boolean</text><text x="5.5" y="57.5">+ private _subscriptions: Subscription[]</text></g><path d="M 0 74 L 240 74" fill="none" stroke="#000000" stroke-miterlimit="10" pointer-events="none"/><g fill="#000000" font-family="Helvetica" clip-path="url(#mx-clip-4-83-232-50-0)" font-size="12px"><text x="5.5" y="95.5">+ add(Unsubscribable): Subscription</text><text x="5.5" y="109.5">+ remove(Subscription): void</text><text x="5.5" y="123.5">+ unsubscribe(): void</text></g><path d="M 400 40 L 247.73 15.97" fill="none" stroke="#000000" stroke-miterlimit="10" pointer-events="none"/><path d="M 242.54 15.15 L 250 12.78 L 247.73 15.97 L 248.91 19.7 Z" fill="#000000" stroke="#000000" stroke-miterlimit="10" pointer-events="none"/><path d="M 280 66 L 280 40 L 520 40 L 520 66" fill="#dae8fc" stroke="#6c8ebf" stroke-miterlimit="10" pointer-events="none"/><path d="M 280 66 L 280 160 L 520 160 L 520 66" fill="none" stroke="#6c8ebf" stroke-miterlimit="10" pointer-events="none"/><path d="M 280 66 L 520 66" fill="none" stroke="#6c8ebf" stroke-miterlimit="10" pointer-events="none"/><g fill="#000000" font-family="Helvetica" font-weight="bold" text-anchor="middle" font-size="12px"><text x="399.5" y="58.33">class Subscriber</text></g><g fill="#000000" font-family="Helvetica" clip-path="url(#mx-clip-284-71-232-34-0)" font-size="12px"><text x="285.5" y="83.5">+ constructor(observer)</text><text x="285.5" y="97.5">+ protected destination: Subscriber</text></g><path d="M 280 104 L 520 104" fill="none" stroke="#000000" stroke-miterlimit="10" pointer-events="none"/><g fill="#000000" font-family="Helvetica" clip-path="url(#mx-clip-284-113-232-52-0)" font-size="12px"><text x="285.5" y="125.5">+ _next(value): void</text><text x="285.5" y="139.5">+ _error(error): void</text><text x="285.5" y="153.5">+ _complete(): void</text></g></g></svg>